<svg width="375" height="844" viewBox="0 0 375 844" fill="none" xmlns="http://www.w3.org/2000/svg">
<g clip-path="url(#clip0_48_244)">
<path d="M113.74 130.727H108.82V154H113.74V130.727ZM120.811 130.727H117.357V139.568H120.811V130.727ZM124.385 154H129.226V143.523C129.226 141.591 130.453 140.307 132.067 140.307C133.658 140.307 134.726 141.398 134.726 143.114V154H139.419V143.341C139.419 141.534 140.453 140.307 142.214 140.307C143.76 140.307 144.919 141.273 144.919 143.216V154H149.749V142.261C149.749 138.477 147.499 136.318 144.249 136.318C141.692 136.318 139.703 137.625 138.987 139.625H138.805C138.249 137.602 136.464 136.318 134.067 136.318C131.714 136.318 129.93 137.568 129.203 139.625H128.999V136.545H124.385V154ZM165.956 154.33C168.536 154.33 170.206 153.205 171.058 151.58H171.195V154H175.786V142.227C175.786 138.068 172.263 136.318 168.376 136.318C164.195 136.318 161.445 138.318 160.774 141.5L165.251 141.864C165.581 140.705 166.615 139.852 168.354 139.852C170.001 139.852 170.945 140.682 170.945 142.114V142.182C170.945 143.307 169.751 143.455 166.717 143.75C163.263 144.068 160.161 145.227 160.161 149.125C160.161 152.58 162.626 154.33 165.956 154.33ZM167.342 150.989C165.854 150.989 164.786 150.295 164.786 148.966C164.786 147.602 165.911 146.932 167.615 146.693C168.672 146.545 170.399 146.295 170.979 145.909V147.761C170.979 149.591 169.467 150.989 167.342 150.989ZM184.382 130.727H179.541V154H184.382V130.727ZM191.703 154H196.817L199.817 143.023H200.033L203.033 154H208.158L212.896 136.545H208.01L205.351 148.205H205.203L202.339 136.545H197.533L194.714 148.273H194.555L191.851 136.545H186.953L191.703 154ZM220.456 154.33C223.036 154.33 224.706 153.205 225.558 151.58H225.695V154H230.286V142.227C230.286 138.068 226.763 136.318 222.876 136.318C218.695 136.318 215.945 138.318 215.274 141.5L219.751 141.864C220.081 140.705 221.115 139.852 222.854 139.852C224.501 139.852 225.445 140.682 225.445 142.114V142.182C225.445 143.307 224.251 143.455 221.217 143.75C217.763 144.068 214.661 145.227 214.661 149.125C214.661 152.58 217.126 154.33 220.456 154.33ZM221.842 150.989C220.354 150.989 219.286 150.295 219.286 148.966C219.286 147.602 220.411 146.932 222.115 146.693C223.172 146.545 224.899 146.295 225.479 145.909V147.761C225.479 149.591 223.967 150.989 221.842 150.989ZM236.405 160.511C240.007 160.511 241.928 158.682 242.905 155.886L249.689 136.568L244.564 136.545L240.916 149.364H240.734L237.121 136.545H232.03L238.291 154.5L238.007 155.239C237.325 156.818 236.155 156.932 234.45 156.398L233.359 160.023C234.053 160.307 235.178 160.511 236.405 160.511ZM266.689 141.523C266.257 138.307 263.666 136.318 259.257 136.318C254.791 136.318 251.848 138.386 251.859 141.75C251.848 144.364 253.496 146.057 256.905 146.739L259.928 147.341C261.45 147.648 262.143 148.205 262.166 149.08C262.143 150.114 261.018 150.852 259.325 150.852C257.598 150.852 256.45 150.114 256.155 148.693L251.393 148.943C251.848 152.284 254.689 154.341 259.314 154.341C263.837 154.341 267.075 152.034 267.087 148.591C267.075 146.068 265.428 144.557 262.041 143.864L258.882 143.227C257.257 142.875 256.655 142.318 256.666 141.477C256.655 140.432 257.837 139.75 259.337 139.75C261.018 139.75 262.018 140.67 262.257 141.795L266.689 141.523ZM27.3537 198H32.1946V180.545H27.3537V198ZM29.7855 178.295C31.2287 178.295 32.4105 177.193 32.4105 175.841C32.4105 174.5 31.2287 173.398 29.7855 173.398C28.3537 173.398 27.1719 174.5 27.1719 175.841C27.1719 177.193 28.3537 178.295 29.7855 178.295ZM40.9134 187.909C40.9247 185.659 42.2656 184.341 44.2202 184.341C46.1634 184.341 47.3338 185.614 47.3224 187.75V198H52.1634V186.886C52.1634 182.818 49.777 180.318 46.1406 180.318C43.5497 180.318 41.6747 181.591 40.8906 183.625H40.6861V180.545H36.0724V198H40.9134V187.909ZM65.2628 180.545H61.9787V176.364H57.1378V180.545H54.7514V184.182H57.1378V193.273C57.1151 196.693 59.4446 198.386 62.956 198.239C64.206 198.193 65.0923 197.943 65.581 197.784L64.8196 194.182C64.581 194.227 64.0696 194.341 63.6151 194.341C62.6491 194.341 61.9787 193.977 61.9787 192.636V184.182H65.2628V180.545ZM76.1832 198.341C80.5014 198.341 83.4105 196.239 84.0923 193L79.6151 192.705C79.1264 194.034 77.8764 194.727 76.2628 194.727C73.8423 194.727 72.3082 193.125 72.3082 190.523V190.511H84.1946V189.182C84.1946 183.25 80.6037 180.318 75.9901 180.318C70.8537 180.318 67.5241 183.966 67.5241 189.352C67.5241 194.886 70.8082 198.341 76.1832 198.341ZM72.3082 187.511C72.4105 185.523 73.9219 183.932 76.0696 183.932C78.1719 183.932 79.6264 185.432 79.6378 187.511H72.3082ZM87.3537 198H92.1946V188.125C92.1946 185.977 93.7628 184.5 95.8991 184.5C96.5696 184.5 97.4901 184.614 97.9446 184.761V180.466C97.5128 180.364 96.9105 180.295 96.4219 180.295C94.4673 180.295 92.8651 181.432 92.2287 183.591H92.0469V180.545H87.3537V198ZM107.589 198.341C111.908 198.341 114.817 196.239 115.499 193L111.021 192.705C110.533 194.034 109.283 194.727 107.669 194.727C105.249 194.727 103.714 193.125 103.714 190.523V190.511H115.601V189.182C115.601 183.25 112.01 180.318 107.396 180.318C102.26 180.318 98.9304 183.966 98.9304 189.352C98.9304 194.886 102.214 198.341 107.589 198.341ZM103.714 187.511C103.817 185.523 105.328 183.932 107.476 183.932C109.578 183.932 111.033 185.432 111.044 187.511H103.714ZM133.283 185.523C132.851 182.307 130.26 180.318 125.851 180.318C121.385 180.318 118.442 182.386 118.453 185.75C118.442 188.364 120.089 190.057 123.499 190.739L126.521 191.341C128.044 191.648 128.737 192.205 128.76 193.08C128.737 194.114 127.612 194.852 125.919 194.852C124.192 194.852 123.044 194.114 122.749 192.693L117.987 192.943C118.442 196.284 121.283 198.341 125.908 198.341C130.43 198.341 133.669 196.034 133.68 192.591C133.669 190.068 132.021 188.557 128.635 187.864L125.476 187.227C123.851 186.875 123.249 186.318 123.26 185.477C123.249 184.432 124.43 183.75 125.93 183.75C127.612 183.75 128.612 184.67 128.851 185.795L133.283 185.523ZM146.013 180.545H142.729V176.364H137.888V180.545H135.501V184.182H137.888V193.273C137.865 196.693 140.195 198.386 143.706 198.239C144.956 198.193 145.842 197.943 146.331 197.784L145.57 194.182C145.331 194.227 144.82 194.341 144.365 194.341C143.399 194.341 142.729 193.977 142.729 192.636V184.182H146.013V180.545ZM156.933 198.341C161.251 198.341 164.161 196.239 164.842 193L160.365 192.705C159.876 194.034 158.626 194.727 157.013 194.727C154.592 194.727 153.058 193.125 153.058 190.523V190.511H164.945V189.182C164.945 183.25 161.354 180.318 156.74 180.318C151.604 180.318 148.274 183.966 148.274 189.352C148.274 194.886 151.558 198.341 156.933 198.341ZM153.058 187.511C153.161 185.523 154.672 183.932 156.82 183.932C158.922 183.932 160.376 185.432 160.388 187.511H153.058ZM174.536 198.284C177.354 198.284 178.82 196.659 179.49 195.205H179.695V198H184.467V174.727H179.638V183.477H179.49C178.842 182.057 177.445 180.318 174.524 180.318C170.695 180.318 167.456 183.295 167.456 189.295C167.456 195.136 170.558 198.284 174.536 198.284ZM176.07 194.432C173.695 194.432 172.399 192.318 172.399 189.273C172.399 186.25 173.672 184.17 176.07 184.17C178.422 184.17 179.74 186.159 179.74 189.273C179.74 192.386 178.399 194.432 176.07 194.432ZM195.854 198H200.695V180.545H195.854V198ZM198.286 178.295C199.729 178.295 200.911 177.193 200.911 175.841C200.911 174.5 199.729 173.398 198.286 173.398C196.854 173.398 195.672 174.5 195.672 175.841C195.672 177.193 196.854 178.295 198.286 178.295ZM209.413 187.909C209.425 185.659 210.766 184.341 212.72 184.341C214.663 184.341 215.834 185.614 215.822 187.75V198H220.663V186.886C220.663 182.818 218.277 180.318 214.641 180.318C212.05 180.318 210.175 181.591 209.391 183.625H209.186V180.545H204.572V198H209.413V187.909ZM236.726 187.909C236.737 185.659 238.112 184.341 240.089 184.341C242.055 184.341 243.214 185.602 243.203 187.75V198H248.044V186.886C248.055 182.795 245.646 180.318 242.01 180.318C239.362 180.318 237.589 181.568 236.794 183.625H236.589V174.727H231.885V198H236.726V187.909ZM259.808 198.341C264.126 198.341 267.036 196.239 267.717 193L263.24 192.705C262.751 194.034 261.501 194.727 259.888 194.727C257.467 194.727 255.933 193.125 255.933 190.523V190.511H267.82V189.182C267.82 183.25 264.229 180.318 259.615 180.318C254.479 180.318 251.149 183.966 251.149 189.352C251.149 194.886 254.433 198.341 259.808 198.341ZM255.933 187.511C256.036 185.523 257.547 183.932 259.695 183.932C261.797 183.932 263.251 185.432 263.263 187.511H255.933ZM275.956 198.33C278.536 198.33 280.206 197.205 281.058 195.58H281.195V198H285.786V186.227C285.786 182.068 282.263 180.318 278.376 180.318C274.195 180.318 271.445 182.318 270.774 185.5L275.251 185.864C275.581 184.705 276.615 183.852 278.354 183.852C280.001 183.852 280.945 184.682 280.945 186.114V186.182C280.945 187.307 279.751 187.455 276.717 187.75C273.263 188.068 270.161 189.227 270.161 193.125C270.161 196.58 272.626 198.33 275.956 198.33ZM277.342 194.989C275.854 194.989 274.786 194.295 274.786 192.966C274.786 191.602 275.911 190.932 277.615 190.693C278.672 190.545 280.399 190.295 280.979 189.909V191.761C280.979 193.591 279.467 194.989 277.342 194.989ZM289.541 198H294.382V188.125C294.382 185.977 295.95 184.5 298.087 184.5C298.757 184.5 299.678 184.614 300.132 184.761V180.466C299.7 180.364 299.098 180.295 298.609 180.295C296.655 180.295 295.053 181.432 294.416 183.591H294.234V180.545H289.541V198ZM302.635 198H307.476V180.545H302.635V198ZM305.067 178.295C306.51 178.295 307.692 177.193 307.692 175.841C307.692 174.5 306.51 173.398 305.067 173.398C303.635 173.398 302.453 174.5 302.453 175.841C302.453 177.193 303.635 178.295 305.067 178.295ZM316.195 187.909C316.206 185.659 317.547 184.341 319.501 184.341C321.445 184.341 322.615 185.614 322.604 187.75V198H327.445V186.886C327.445 182.818 325.058 180.318 321.422 180.318C318.831 180.318 316.956 181.591 316.172 183.625H315.967V180.545H311.354V198H316.195V187.909ZM339.124 204.795C344.112 204.795 347.658 202.523 347.658 198.17V180.545H342.851V183.477H342.669C342.021 182.057 340.601 180.318 337.68 180.318C333.851 180.318 330.612 183.295 330.612 189.239C330.612 195.045 333.76 197.75 337.692 197.75C340.476 197.75 342.033 196.352 342.669 194.909H342.874V198.102C342.874 200.386 341.339 201.318 339.237 201.318C337.101 201.318 336.021 200.386 335.624 199.443L331.146 200.045C331.726 202.682 334.419 204.795 339.124 204.795ZM339.226 194.114C336.851 194.114 335.555 192.227 335.555 189.216C335.555 186.25 336.828 184.17 339.226 184.17C341.578 184.17 342.896 186.159 342.896 189.216C342.896 192.295 341.555 194.114 339.226 194.114ZM39.7372 242.33C42.3168 242.33 43.9872 241.205 44.8395 239.58H44.9759V242H49.5668V230.227C49.5668 226.068 46.044 224.318 42.1577 224.318C37.9759 224.318 35.2259 226.318 34.5554 229.5L39.0327 229.864C39.3622 228.705 40.3963 227.852 42.1349 227.852C43.7827 227.852 44.7259 228.682 44.7259 230.114V230.182C44.7259 231.307 43.5327 231.455 40.4986 231.75C37.044 232.068 33.9418 233.227 33.9418 237.125C33.9418 240.58 36.4077 242.33 39.7372 242.33ZM41.1236 238.989C39.6349 238.989 38.5668 238.295 38.5668 236.966C38.5668 235.602 39.6918 234.932 41.3963 234.693C42.4531 234.545 44.1804 234.295 44.7599 233.909V235.761C44.7599 237.591 43.2486 238.989 41.1236 238.989ZM53.4134 242H58.1861V239.205H58.402C59.0724 240.659 60.5384 242.284 63.3565 242.284C67.3338 242.284 70.4361 239.136 70.4361 233.295C70.4361 227.295 67.1974 224.318 63.3679 224.318C60.4474 224.318 59.0497 226.057 58.402 227.477H58.2543V218.727H53.4134V242ZM58.152 233.273C58.152 230.159 59.4702 228.17 61.8224 228.17C64.2202 228.17 65.4929 230.25 65.4929 233.273C65.4929 236.318 64.1974 238.432 61.8224 238.432C59.4929 238.432 58.152 236.386 58.152 233.273ZM81.5526 242.341C86.848 242.341 90.1435 238.716 90.1435 233.341C90.1435 227.932 86.848 224.318 81.5526 224.318C76.2571 224.318 72.9616 227.932 72.9616 233.341C72.9616 238.716 76.2571 242.341 81.5526 242.341ZM81.5753 238.591C79.1321 238.591 77.8821 236.352 77.8821 233.307C77.8821 230.261 79.1321 228.011 81.5753 228.011C83.973 228.011 85.223 230.261 85.223 233.307C85.223 236.352 83.973 238.591 81.5753 238.591ZM104.484 234.568C104.496 236.909 102.893 238.136 101.155 238.136C99.3253 238.136 98.1435 236.852 98.1321 234.795V224.545H93.2912V235.659C93.3026 239.739 95.6889 242.227 99.2003 242.227C101.825 242.227 103.712 240.875 104.496 238.83H104.678V242H109.325V224.545H104.484V234.568ZM122.482 224.545H119.197V220.364H114.357V224.545H111.97V228.182H114.357V237.273C114.334 240.693 116.663 242.386 120.175 242.239C121.425 242.193 122.311 241.943 122.8 241.784L122.038 238.182C121.8 238.227 121.288 238.341 120.834 238.341C119.868 238.341 119.197 237.977 119.197 236.636V228.182H122.482V224.545ZM137.882 231.909C137.893 229.659 139.234 228.341 141.189 228.341C143.132 228.341 144.303 229.614 144.291 231.75V242H149.132V230.886C149.132 226.818 146.746 224.318 143.109 224.318C140.518 224.318 138.643 225.591 137.859 227.625H137.655V224.545H133.041V242H137.882V231.909ZM160.902 242.341C165.22 242.341 168.129 240.239 168.811 237L164.334 236.705C163.845 238.034 162.595 238.727 160.982 238.727C158.561 238.727 157.027 237.125 157.027 234.523V234.511H168.913V233.182C168.913 227.25 165.322 224.318 160.709 224.318C155.572 224.318 152.243 227.966 152.243 233.352C152.243 238.886 155.527 242.341 160.902 242.341ZM157.027 231.511C157.129 229.523 158.641 227.932 160.788 227.932C162.891 227.932 164.345 229.432 164.357 231.511H157.027ZM175.391 242H180.504L183.504 231.023H183.72L186.72 242H191.845L196.584 224.545H191.697L189.038 236.205H188.891L186.027 224.545H181.22L178.402 236.273H178.243L175.538 224.545H170.641L175.391 242ZM206.572 248.545H211.413V239.205H211.561C212.232 240.659 213.697 242.284 216.516 242.284C220.493 242.284 223.595 239.136 223.595 233.295C223.595 227.295 220.357 224.318 216.527 224.318C213.607 224.318 212.209 226.057 211.561 227.477H211.345V224.545H206.572V248.545ZM211.311 233.273C211.311 230.159 212.629 228.17 214.982 228.17C217.379 228.17 218.652 230.25 218.652 233.273C218.652 236.318 217.357 238.432 214.982 238.432C212.652 238.432 211.311 236.386 211.311 233.273ZM226.822 242H231.663V232.125C231.663 229.977 233.232 228.5 235.368 228.5C236.038 228.5 236.959 228.614 237.413 228.761V224.466C236.982 224.364 236.379 224.295 235.891 224.295C233.936 224.295 232.334 225.432 231.697 227.591H231.516V224.545H226.822V242ZM246.99 242.341C252.286 242.341 255.581 238.716 255.581 233.341C255.581 227.932 252.286 224.318 246.99 224.318C241.695 224.318 238.399 227.932 238.399 233.341C238.399 238.716 241.695 242.341 246.99 242.341ZM247.013 238.591C244.57 238.591 243.32 236.352 243.32 233.307C243.32 230.261 244.57 228.011 247.013 228.011C249.411 228.011 250.661 230.261 250.661 233.307C250.661 236.352 249.411 238.591 247.013 238.591ZM258.729 224.545V242.727C258.729 244.045 258.172 244.705 256.615 244.705C256.411 244.705 256.229 244.705 255.979 244.682V248.466C256.354 248.489 256.615 248.489 256.876 248.489C261.07 248.602 263.57 246.852 263.57 242.807V224.545H258.729ZM261.138 222.295C262.581 222.295 263.763 221.193 263.763 219.841C263.763 218.5 262.581 217.398 261.138 217.398C259.706 217.398 258.524 218.5 258.524 219.841C258.524 221.193 259.706 222.295 261.138 222.295ZM275.402 242.341C279.72 242.341 282.629 240.239 283.311 237L278.834 236.705C278.345 238.034 277.095 238.727 275.482 238.727C273.061 238.727 271.527 237.125 271.527 234.523V234.511H283.413V233.182C283.413 227.25 279.822 224.318 275.209 224.318C270.072 224.318 266.743 227.966 266.743 233.352C266.743 238.886 270.027 242.341 275.402 242.341ZM271.527 231.511C271.629 229.523 273.141 227.932 275.288 227.932C277.391 227.932 278.845 229.432 278.857 231.511H271.527ZM294.459 242.341C299.107 242.341 302.027 239.614 302.254 235.602H297.686C297.402 237.466 296.175 238.511 294.516 238.511C292.254 238.511 290.788 236.614 290.788 233.273C290.788 229.977 292.266 228.091 294.516 228.091C296.288 228.091 297.425 229.261 297.686 231H302.254C302.05 226.966 298.993 224.318 294.436 224.318C289.141 224.318 285.868 227.989 285.868 233.341C285.868 238.648 289.084 242.341 294.459 242.341ZM314.638 224.545H311.354V220.364H306.513V224.545H304.126V228.182H306.513V237.273C306.49 240.693 308.82 242.386 312.331 242.239C313.581 242.193 314.467 241.943 314.956 241.784L314.195 238.182C313.956 238.227 313.445 238.341 312.99 238.341C312.024 238.341 311.354 237.977 311.354 236.636V228.182H314.638V224.545ZM332.064 229.523C331.632 226.307 329.041 224.318 324.632 224.318C320.166 224.318 317.223 226.386 317.234 229.75C317.223 232.364 318.871 234.057 322.28 234.739L325.303 235.341C326.825 235.648 327.518 236.205 327.541 237.08C327.518 238.114 326.393 238.852 324.7 238.852C322.973 238.852 321.825 238.114 321.53 236.693L316.768 236.943C317.223 240.284 320.064 242.341 324.689 242.341C329.212 242.341 332.45 240.034 332.462 236.591C332.45 234.068 330.803 232.557 327.416 231.864L324.257 231.227C322.632 230.875 322.03 230.318 322.041 229.477C322.03 228.432 323.212 227.75 324.712 227.75C326.393 227.75 327.393 228.67 327.632 229.795L332.064 229.523ZM340.771 238.818H336.771L336.714 240.091C336.578 243.182 335.692 246.352 335.362 247.682H338.499C339.044 246.307 340.339 243.08 340.646 240.068L340.771 238.818ZM74.2827 273.523C73.8509 270.307 71.2599 268.318 66.8509 268.318C62.3849 268.318 59.4418 270.386 59.4531 273.75C59.4418 276.364 61.0895 278.057 64.4986 278.739L67.5213 279.341C69.044 279.648 69.7372 280.205 69.7599 281.08C69.7372 282.114 68.6122 282.852 66.919 282.852C65.1918 282.852 64.044 282.114 63.7486 280.693L58.9872 280.943C59.4418 284.284 62.2827 286.341 66.9077 286.341C71.4304 286.341 74.669 284.034 74.6804 280.591C74.669 278.068 73.0213 276.557 69.6349 275.864L66.4759 275.227C64.8509 274.875 64.2486 274.318 64.2599 273.477C64.2486 272.432 65.4304 271.75 66.9304 271.75C68.6122 271.75 69.6122 272.67 69.8509 273.795L74.2827 273.523ZM85.6151 286.341C90.9105 286.341 94.206 282.716 94.206 277.341C94.206 271.932 90.9105 268.318 85.6151 268.318C80.3196 268.318 77.0241 271.932 77.0241 277.341C77.0241 282.716 80.3196 286.341 85.6151 286.341ZM85.6378 282.591C83.1946 282.591 81.9446 280.352 81.9446 277.307C81.9446 274.261 83.1946 272.011 85.6378 272.011C88.0355 272.011 89.2855 274.261 89.2855 277.307C89.2855 280.352 88.0355 282.591 85.6378 282.591ZM104.76 286H109.601V268.545H104.76V286ZM107.192 266.295C108.635 266.295 109.817 265.193 109.817 263.841C109.817 262.5 108.635 261.398 107.192 261.398C105.76 261.398 104.578 262.5 104.578 263.841C104.578 265.193 105.76 266.295 107.192 266.295ZM122.865 268.545H119.399V267.375C119.399 266.193 119.876 265.5 121.297 265.5C121.876 265.5 122.467 265.625 122.854 265.75L123.706 262.114C123.104 261.932 121.774 261.636 120.286 261.636C117.001 261.636 114.558 263.489 114.558 267.284V268.545H112.092V272.182H114.558V286H119.399V272.182H122.865V268.545ZM136.217 292.511C139.82 292.511 141.74 290.682 142.717 287.886L149.501 268.568L144.376 268.545L140.729 281.364H140.547L136.933 268.545H131.842L138.104 286.5L137.82 287.239C137.138 288.818 135.967 288.932 134.263 288.398L133.172 292.023C133.865 292.307 134.99 292.511 136.217 292.511ZM159.271 286.341C164.567 286.341 167.862 282.716 167.862 277.341C167.862 271.932 164.567 268.318 159.271 268.318C153.976 268.318 150.68 271.932 150.68 277.341C150.68 282.716 153.976 286.341 159.271 286.341ZM159.294 282.591C156.851 282.591 155.601 280.352 155.601 277.307C155.601 274.261 156.851 272.011 159.294 272.011C161.692 272.011 162.942 274.261 162.942 277.307C162.942 280.352 161.692 282.591 159.294 282.591ZM182.203 278.568C182.214 280.909 180.612 282.136 178.874 282.136C177.044 282.136 175.862 280.852 175.851 278.795V268.545H171.01V279.659C171.021 283.739 173.408 286.227 176.919 286.227C179.544 286.227 181.43 284.875 182.214 282.83H182.396V286H187.044V268.545H182.203V278.568ZM194.03 262.727H190.575V271.568H194.03V262.727ZM204.036 286.284C206.854 286.284 208.32 284.659 208.99 283.205H209.195V286H213.967V262.727H209.138V271.477H208.99C208.342 270.057 206.945 268.318 204.024 268.318C200.195 268.318 196.956 271.295 196.956 277.295C196.956 283.136 200.058 286.284 204.036 286.284ZM205.57 282.432C203.195 282.432 201.899 280.318 201.899 277.273C201.899 274.25 203.172 272.17 205.57 272.17C207.922 272.17 209.24 274.159 209.24 277.273C209.24 280.386 207.899 282.432 205.57 282.432ZM230.195 262.727H225.354V286H230.195V262.727ZM234.072 286H238.913V268.545H234.072V286ZM236.504 266.295C237.947 266.295 239.129 265.193 239.129 263.841C239.129 262.5 237.947 261.398 236.504 261.398C235.072 261.398 233.891 262.5 233.891 263.841C233.891 265.193 235.072 266.295 236.504 266.295ZM242.791 286H247.632V280.455L248.939 278.966L253.7 286H259.371L252.564 276.102L259.041 268.545H253.484L247.893 275.17H247.632V262.727H242.791V286ZM268.652 286.341C272.97 286.341 275.879 284.239 276.561 281L272.084 280.705C271.595 282.034 270.345 282.727 268.732 282.727C266.311 282.727 264.777 281.125 264.777 278.523V278.511H276.663V277.182C276.663 271.25 273.072 268.318 268.459 268.318C263.322 268.318 259.993 271.966 259.993 277.352C259.993 282.886 263.277 286.341 268.652 286.341ZM264.777 275.511C264.879 273.523 266.391 271.932 268.538 271.932C270.641 271.932 272.095 273.432 272.107 275.511H264.777ZM296.513 268.545H293.229V264.364H288.388V268.545H286.001V272.182H288.388V281.273C288.365 284.693 290.695 286.386 294.206 286.239C295.456 286.193 296.342 285.943 296.831 285.784L296.07 282.182C295.831 282.227 295.32 282.341 294.865 282.341C293.899 282.341 293.229 281.977 293.229 280.636V272.182H296.513V268.545ZM307.365 286.341C312.661 286.341 315.956 282.716 315.956 277.341C315.956 271.932 312.661 268.318 307.365 268.318C302.07 268.318 298.774 271.932 298.774 277.341C298.774 282.716 302.07 286.341 307.365 286.341ZM307.388 282.591C304.945 282.591 303.695 280.352 303.695 277.307C303.695 274.261 304.945 272.011 307.388 272.011C309.786 272.011 311.036 274.261 311.036 277.307C311.036 280.352 309.786 282.591 307.388 282.591ZM59.2401 330.341C63.8878 330.341 66.8082 327.614 67.0355 323.602H62.4673C62.1832 325.466 60.956 326.511 59.2969 326.511C57.0355 326.511 55.5696 324.614 55.5696 321.273C55.5696 317.977 57.0469 316.091 59.2969 316.091C61.0696 316.091 62.206 317.261 62.4673 319H67.0355C66.831 314.966 63.7741 312.318 59.2173 312.318C53.9219 312.318 50.6491 315.989 50.6491 321.341C50.6491 326.648 53.8651 330.341 59.2401 330.341ZM74.9759 319.909C74.9872 317.659 76.3622 316.341 78.3395 316.341C80.3054 316.341 81.4645 317.602 81.4531 319.75V330H86.294V318.886C86.3054 314.795 83.8963 312.318 80.2599 312.318C77.6122 312.318 75.8395 313.568 75.044 315.625H74.8395V306.727H70.1349V330H74.9759V319.909ZM95.081 330.33C97.6605 330.33 99.331 329.205 100.183 327.58H100.32V330H104.911V318.227C104.911 314.068 101.388 312.318 97.5014 312.318C93.3196 312.318 90.5696 314.318 89.8991 317.5L94.3764 317.864C94.706 316.705 95.7401 315.852 97.4787 315.852C99.1264 315.852 100.07 316.682 100.07 318.114V318.182C100.07 319.307 98.8764 319.455 95.8423 319.75C92.3878 320.068 89.2855 321.227 89.2855 325.125C89.2855 328.58 91.7514 330.33 95.081 330.33ZM96.4673 326.989C94.9787 326.989 93.9105 326.295 93.9105 324.966C93.9105 323.602 95.0355 322.932 96.7401 322.693C97.7969 322.545 99.5241 322.295 100.104 321.909V323.761C100.104 325.591 98.5923 326.989 96.4673 326.989ZM117.95 312.545H114.666V308.364H109.825V312.545H107.439V316.182H109.825V325.273C109.803 328.693 112.132 330.386 115.643 330.239C116.893 330.193 117.78 329.943 118.268 329.784L117.507 326.182C117.268 326.227 116.757 326.341 116.303 326.341C115.337 326.341 114.666 325.977 114.666 324.636V316.182H117.95V312.545ZM128.51 336.545H133.351V327.205H133.499C134.169 328.659 135.635 330.284 138.453 330.284C142.43 330.284 145.533 327.136 145.533 321.295C145.533 315.295 142.294 312.318 138.464 312.318C135.544 312.318 134.146 314.057 133.499 315.477H133.283V312.545H128.51V336.545ZM133.249 321.273C133.249 318.159 134.567 316.17 136.919 316.17C139.317 316.17 140.589 318.25 140.589 321.273C140.589 324.318 139.294 326.432 136.919 326.432C134.589 326.432 133.249 324.386 133.249 321.273ZM153.601 306.727H148.76V330H153.601V306.727ZM165.433 330.341C169.751 330.341 172.661 328.239 173.342 325L168.865 324.705C168.376 326.034 167.126 326.727 165.513 326.727C163.092 326.727 161.558 325.125 161.558 322.523V322.511H173.445V321.182C173.445 315.25 169.854 312.318 165.24 312.318C160.104 312.318 156.774 315.966 156.774 321.352C156.774 326.886 160.058 330.341 165.433 330.341ZM161.558 319.511C161.661 317.523 163.172 315.932 165.32 315.932C167.422 315.932 168.876 317.432 168.888 319.511H161.558ZM181.581 330.33C184.161 330.33 185.831 329.205 186.683 327.58H186.82V330H191.411V318.227C191.411 314.068 187.888 312.318 184.001 312.318C179.82 312.318 177.07 314.318 176.399 317.5L180.876 317.864C181.206 316.705 182.24 315.852 183.979 315.852C185.626 315.852 186.57 316.682 186.57 318.114V318.182C186.57 319.307 185.376 319.455 182.342 319.75C178.888 320.068 175.786 321.227 175.786 325.125C175.786 328.58 178.251 330.33 181.581 330.33ZM182.967 326.989C181.479 326.989 180.411 326.295 180.411 324.966C180.411 323.602 181.536 322.932 183.24 322.693C184.297 322.545 186.024 322.295 186.604 321.909V323.761C186.604 325.591 185.092 326.989 182.967 326.989ZM209.689 317.523C209.257 314.307 206.666 312.318 202.257 312.318C197.791 312.318 194.848 314.386 194.859 317.75C194.848 320.364 196.496 322.057 199.905 322.739L202.928 323.341C204.45 323.648 205.143 324.205 205.166 325.08C205.143 326.114 204.018 326.852 202.325 326.852C200.598 326.852 199.45 326.114 199.155 324.693L194.393 324.943C194.848 328.284 197.689 330.341 202.314 330.341C206.837 330.341 210.075 328.034 210.087 324.591C210.075 322.068 208.428 320.557 205.041 319.864L201.882 319.227C200.257 318.875 199.655 318.318 199.666 317.477C199.655 316.432 200.837 315.75 202.337 315.75C204.018 315.75 205.018 316.67 205.257 317.795L209.689 317.523ZM221.089 330.341C225.408 330.341 228.317 328.239 228.999 325L224.521 324.705C224.033 326.034 222.783 326.727 221.169 326.727C218.749 326.727 217.214 325.125 217.214 322.523V322.511H229.101V321.182C229.101 315.25 225.51 312.318 220.896 312.318C215.76 312.318 212.43 315.966 212.43 321.352C212.43 326.886 215.714 330.341 221.089 330.341ZM217.214 319.511C217.317 317.523 218.828 315.932 220.976 315.932C223.078 315.932 224.533 317.432 224.544 319.511H217.214ZM247.53 336.795C252.518 336.795 256.064 334.523 256.064 330.17V312.545H251.257V315.477H251.075C250.428 314.057 249.007 312.318 246.087 312.318C242.257 312.318 239.018 315.295 239.018 321.239C239.018 327.045 242.166 329.75 246.098 329.75C248.882 329.75 250.439 328.352 251.075 326.909H251.28V330.102C251.28 332.386 249.746 333.318 247.643 333.318C245.507 333.318 244.428 332.386 244.03 331.443L239.553 332.045C240.132 334.682 242.825 336.795 247.53 336.795ZM247.632 326.114C245.257 326.114 243.962 324.227 243.962 321.216C243.962 318.25 245.234 316.17 247.632 316.17C249.984 316.17 251.303 318.159 251.303 321.216C251.303 324.295 249.962 326.114 247.632 326.114ZM267.871 330.341C272.189 330.341 275.098 328.239 275.78 325L271.303 324.705C270.814 326.034 269.564 326.727 267.95 326.727C265.53 326.727 263.996 325.125 263.996 322.523V322.511H275.882V321.182C275.882 315.25 272.291 312.318 267.678 312.318C262.541 312.318 259.212 315.966 259.212 321.352C259.212 326.886 262.496 330.341 267.871 330.341ZM263.996 319.511C264.098 317.523 265.609 315.932 267.757 315.932C269.859 315.932 271.314 317.432 271.325 319.511H263.996ZM288.325 312.545H285.041V308.364H280.2V312.545H277.814V316.182H280.2V325.273C280.178 328.693 282.507 330.386 286.018 330.239C287.268 330.193 288.155 329.943 288.643 329.784L287.882 326.182C287.643 326.227 287.132 326.341 286.678 326.341C285.712 326.341 285.041 325.977 285.041 324.636V316.182H288.325V312.545ZM298.885 330H303.726V312.545H298.885V330ZM301.317 310.295C302.76 310.295 303.942 309.193 303.942 307.841C303.942 306.5 302.76 305.398 301.317 305.398C299.885 305.398 298.703 306.5 298.703 307.841C298.703 309.193 299.885 310.295 301.317 310.295ZM312.445 319.909C312.456 317.659 313.797 316.341 315.751 316.341C317.695 316.341 318.865 317.614 318.854 319.75V330H323.695V318.886C323.695 314.818 321.308 312.318 317.672 312.318C315.081 312.318 313.206 313.591 312.422 315.625H312.217V312.545H307.604V330H312.445V319.909ZM148.685 356.545H145.401V352.364H140.56V356.545H138.173V360.182H140.56V369.273C140.537 372.693 142.866 374.386 146.378 374.239C147.628 374.193 148.514 373.943 149.003 373.784L148.241 370.182C148.003 370.227 147.491 370.341 147.037 370.341C146.071 370.341 145.401 369.977 145.401 368.636V360.182H148.685V356.545ZM159.537 374.341C164.832 374.341 168.128 370.716 168.128 365.341C168.128 359.932 164.832 356.318 159.537 356.318C154.241 356.318 150.946 359.932 150.946 365.341C150.946 370.716 154.241 374.341 159.537 374.341ZM159.56 370.591C157.116 370.591 155.866 368.352 155.866 365.307C155.866 362.261 157.116 360.011 159.56 360.011C161.957 360.011 163.207 362.261 163.207 365.307C163.207 368.352 161.957 370.591 159.56 370.591ZM182.469 366.568C182.48 368.909 180.878 370.136 179.139 370.136C177.31 370.136 176.128 368.852 176.116 366.795V356.545H171.276V367.659C171.287 371.739 173.673 374.227 177.185 374.227C179.81 374.227 181.696 372.875 182.48 370.83H182.662V374H187.31V356.545H182.469V366.568ZM199.068 374.341C203.716 374.341 206.636 371.614 206.864 367.602H202.295C202.011 369.466 200.784 370.511 199.125 370.511C196.864 370.511 195.398 368.614 195.398 365.273C195.398 361.977 196.875 360.091 199.125 360.091C200.898 360.091 202.034 361.261 202.295 363H206.864C206.659 358.966 203.602 356.318 199.045 356.318C193.75 356.318 190.477 359.989 190.477 365.341C190.477 370.648 193.693 374.341 199.068 374.341ZM214.804 363.909C214.815 361.659 216.19 360.341 218.168 360.341C220.134 360.341 221.293 361.602 221.281 363.75V374H226.122V362.886C226.134 358.795 223.724 356.318 220.088 356.318C217.44 356.318 215.668 357.568 214.872 359.625H214.668V350.727H209.963V374H214.804V363.909ZM232.761 374.295C234.216 374.295 235.477 373.08 235.489 371.568C235.477 370.08 234.216 368.864 232.761 368.864C231.261 368.864 230.023 370.08 230.034 371.568C230.023 373.08 231.261 374.295 232.761 374.295Z" fill="#172B4D"/>
</g>
<rect x="24" y="441" width="327" height="1" fill="#DBD8D7"/>
<path d="M41.321 423H42.642V418.121H47.3722V416.949H42.642V413.263H47.8622V412.091H41.321V423ZM54.5978 419.655C54.5978 421.189 53.426 421.892 52.4885 421.892C51.4444 421.892 50.6987 421.125 50.6987 419.932V414.818H49.4416V420.017C49.4416 422.105 50.5495 423.107 52.0836 423.107C53.3194 423.107 54.1291 422.446 54.5126 421.615H54.5978V423H55.8549V414.818H54.5978V419.655ZM59.4145 412.091H58.1574V423H59.4145V412.091ZM62.9741 412.091H61.717V423H62.9741V412.091ZM70.7524 418.078C70.7524 416.651 71.6366 415.841 72.8405 415.841C74.007 415.841 74.7155 416.603 74.7155 417.886V423H75.9726V417.801C75.9726 415.713 74.8593 414.712 73.2027 414.712C71.9669 414.712 71.1998 415.266 70.8163 416.097H70.7098V414.818H69.4953V423H70.7524V418.078ZM80.6774 423.192C82.1049 423.192 82.8507 422.425 83.1064 421.892H83.1703V423H84.4274V417.609C84.4274 415.01 82.4458 414.712 81.4018 414.712C80.166 414.712 78.7598 415.138 78.1206 416.629L79.3137 417.055C79.5907 416.459 80.2459 415.82 81.4444 415.82C82.6003 415.82 83.1703 416.432 83.1703 417.482V417.524C83.1703 418.131 82.5524 418.078 81.0609 418.27C79.5428 418.467 77.8862 418.803 77.8862 420.678C77.8862 422.276 79.122 423.192 80.6774 423.192ZM80.8691 422.062C79.8677 422.062 79.1433 421.615 79.1433 420.741C79.1433 419.783 80.0169 419.484 80.997 419.357C81.5297 419.293 82.9572 419.143 83.1703 418.888V420.038C83.1703 421.061 82.3606 422.062 80.8691 422.062ZM86.7219 423H87.979V417.886C87.979 416.688 88.8525 415.841 89.8327 415.841C90.7861 415.841 91.452 416.464 91.452 417.396V423H92.7304V417.673C92.7304 416.619 93.3909 415.841 94.5415 415.841C95.4363 415.841 96.2034 416.315 96.2034 417.524V423H97.4605V417.524C97.4605 415.601 96.4271 414.712 94.9676 414.712C93.7957 414.712 92.9381 415.25 92.5173 416.097H92.4321C92.0273 415.223 91.3135 414.712 90.2375 414.712C89.1721 414.712 88.3838 415.223 88.0429 416.097H87.9363V414.818H86.7219V423ZM103.189 423.17C104.851 423.17 106.066 422.339 106.449 421.104L105.235 420.763C104.915 421.615 104.175 422.041 103.189 422.041C101.714 422.041 100.696 421.088 100.638 419.335H106.577V418.803C106.577 415.756 104.766 414.712 103.062 414.712C100.846 414.712 99.3754 416.459 99.3754 418.973C99.3754 421.487 100.824 423.17 103.189 423.17ZM100.638 418.249C100.723 416.975 101.623 415.841 103.062 415.841C104.425 415.841 105.299 416.864 105.299 418.249H100.638Z" fill="#979493"/>
<rect x="24" y="513" width="327" height="1" fill="#DBD8D7"/>
<path d="M41.321 495H47.9901V493.828H42.642V490.121H47.5639V488.949H42.642V485.263H47.9048V484.091H41.321V495ZM50.1154 495H51.3725V489.886C51.3725 488.688 52.2461 487.841 53.2262 487.841C54.1797 487.841 54.8455 488.464 54.8455 489.396V495H56.1239V489.673C56.1239 488.619 56.7844 487.841 57.935 487.841C58.8299 487.841 59.5969 488.315 59.5969 489.524V495H60.854V489.524C60.854 487.601 59.8207 486.712 58.3612 486.712C57.1893 486.712 56.3317 487.25 55.9109 488.097H55.8256C55.4208 487.223 54.707 486.712 53.631 486.712C52.5657 486.712 51.7773 487.223 51.4364 488.097H51.3299V486.818H50.1154V495ZM65.5602 495.192C66.9877 495.192 67.7335 494.425 67.9892 493.892H68.0531V495H69.3102V489.609C69.3102 487.01 67.3287 486.712 66.2846 486.712C65.0488 486.712 63.6426 487.138 63.0034 488.629L64.1966 489.055C64.4735 488.459 65.1287 487.82 66.3272 487.82C67.4831 487.82 68.0531 488.432 68.0531 489.482V489.524C68.0531 490.131 67.4352 490.078 65.9437 490.27C64.4256 490.467 62.769 490.803 62.769 492.678C62.769 494.276 64.0048 495.192 65.5602 495.192ZM65.752 494.062C64.7505 494.062 64.0261 493.615 64.0261 492.741C64.0261 491.783 64.8997 491.484 65.8798 491.357C66.4125 491.293 67.84 491.143 68.0531 490.888V492.038C68.0531 493.061 67.2434 494.062 65.752 494.062ZM71.6047 495H72.8618V486.818H71.6047V495ZM72.2439 485.455C72.7339 485.455 73.1388 485.071 73.1388 484.602C73.1388 484.134 72.7339 483.75 72.2439 483.75C71.7538 483.75 71.349 484.134 71.349 484.602C71.349 485.071 71.7538 485.455 72.2439 485.455ZM76.4213 484.091H75.1642V495H76.4213V484.091ZM85.3502 495.192C86.7778 495.192 87.5235 494.425 87.7792 493.892H87.8431V495H89.1002V489.609C89.1002 487.01 87.1187 486.712 86.0747 486.712C84.8389 486.712 83.4326 487.138 82.7934 488.629L83.9866 489.055C84.2636 488.459 84.9188 487.82 86.1173 487.82C87.2732 487.82 87.8431 488.432 87.8431 489.482V489.524C87.8431 490.131 87.2252 490.078 85.7338 490.27C84.2156 490.467 82.559 490.803 82.559 492.678C82.559 494.276 83.7948 495.192 85.3502 495.192ZM85.542 494.062C84.5406 494.062 83.8161 493.615 83.8161 492.741C83.8161 491.783 84.6897 491.484 85.6698 491.357C86.2025 491.293 87.6301 491.143 87.8431 490.888V492.038C87.8431 493.061 87.0335 494.062 85.542 494.062ZM94.4842 495.17C96.0609 495.17 96.5936 494.19 96.8706 493.743H97.0197V495H98.2342V484.091H96.9771V488.118H96.8706C96.5936 487.692 96.1035 486.712 94.5055 486.712C92.4387 486.712 91.0112 488.352 91.0112 490.93C91.0112 493.53 92.4387 495.17 94.4842 495.17ZM94.6547 494.041C93.0779 494.041 92.2683 492.656 92.2683 490.909C92.2683 489.183 93.0566 487.841 94.6547 487.841C96.1887 487.841 96.9984 489.077 96.9984 490.909C96.9984 492.763 96.1674 494.041 94.6547 494.041ZM103.801 495.17C105.377 495.17 105.91 494.19 106.187 493.743H106.336V495H107.551V484.091H106.294V488.118H106.187C105.91 487.692 105.42 486.712 103.822 486.712C101.755 486.712 100.328 488.352 100.328 490.93C100.328 493.53 101.755 495.17 103.801 495.17ZM103.971 494.041C102.394 494.041 101.585 492.656 101.585 490.909C101.585 489.183 102.373 487.841 103.971 487.841C105.505 487.841 106.315 489.077 106.315 490.909C106.315 492.763 105.484 494.041 103.971 494.041ZM110.028 495H111.285V489.822C111.285 488.714 112.158 487.905 113.351 487.905C113.687 487.905 114.033 487.969 114.118 487.99V486.712C113.975 486.701 113.644 486.69 113.458 486.69C112.478 486.69 111.626 487.244 111.327 488.054H111.242V486.818H110.028V495ZM118.79 495.17C120.452 495.17 121.666 494.339 122.05 493.104L120.835 492.763C120.516 493.615 119.775 494.041 118.79 494.041C117.314 494.041 116.297 493.088 116.238 491.335H122.178V490.803C122.178 487.756 120.367 486.712 118.662 486.712C116.446 486.712 114.976 488.459 114.976 490.973C114.976 493.487 116.425 495.17 118.79 495.17ZM116.238 490.249C116.324 488.975 117.224 487.841 118.662 487.841C120.026 487.841 120.899 488.864 120.899 490.249H116.238ZM129.885 488.651C129.491 487.489 128.607 486.712 126.988 486.712C125.262 486.712 123.983 487.692 123.983 489.077C123.983 490.206 124.655 490.962 126.157 491.314L127.52 491.634C128.346 491.825 128.735 492.219 128.735 492.784C128.735 493.487 127.989 494.062 126.817 494.062C125.789 494.062 125.145 493.62 124.921 492.741L123.728 493.04C124.021 494.43 125.166 495.17 126.839 495.17C128.74 495.17 130.035 494.132 130.035 492.72C130.035 491.58 129.321 490.861 127.861 490.504L126.647 490.206C125.677 489.966 125.241 489.641 125.241 489.013C125.241 488.31 125.986 487.798 126.988 487.798C128.085 487.798 128.538 488.406 128.756 488.97L129.885 488.651ZM137.722 488.651C137.328 487.489 136.444 486.712 134.825 486.712C133.099 486.712 131.82 487.692 131.82 489.077C131.82 490.206 132.492 490.962 133.994 491.314L135.357 491.634C136.183 491.825 136.572 492.219 136.572 492.784C136.572 493.487 135.826 494.062 134.654 494.062C133.626 494.062 132.982 493.62 132.758 492.741L131.565 493.04C131.858 494.43 133.003 495.17 134.676 495.17C136.577 495.17 137.872 494.132 137.872 492.72C137.872 491.58 137.158 490.861 135.698 490.504L134.484 490.206C133.514 489.966 133.078 489.641 133.078 489.013C133.078 488.31 133.823 487.798 134.825 487.798C135.922 487.798 136.375 488.406 136.593 488.97L137.722 488.651Z" fill="#979493"/>
<rect x="24" y="538" width="327" height="114" fill="#FBF8F7"/>
<path d="M37.321 567H43.9901V565.828H38.642V562.121H43.5639V560.949H38.642V557.263H43.9048V556.091H37.321V567ZM47.3725 562.078C47.3725 560.651 48.2567 559.841 49.4606 559.841C50.6271 559.841 51.3356 560.603 51.3356 561.886V567H52.5927V561.801C52.5927 559.713 51.4794 558.712 49.8228 558.712C48.587 558.712 47.82 559.266 47.4364 560.097H47.3299V558.818H46.1154V567H47.3725V562.078ZM58.4481 558.818H56.7009V556.858H55.4438V558.818H54.208V559.884H55.4438V564.997C55.4438 566.425 56.5944 567.107 57.6597 567.107C58.1285 567.107 58.4268 567.021 58.5972 566.957L58.3415 565.828C58.235 565.849 58.0645 565.892 57.7876 565.892C57.2336 565.892 56.7009 565.722 56.7009 564.656V559.884H58.4481V558.818ZM63.6816 567.17C65.3435 567.17 66.558 566.339 66.9415 565.104L65.727 564.763C65.4074 565.615 64.667 566.041 63.6816 566.041C62.2061 566.041 61.1887 565.088 61.1301 563.335H67.0693V562.803C67.0693 559.756 65.2583 558.712 63.5537 558.712C61.3378 558.712 59.8676 560.459 59.8676 562.973C59.8676 565.487 61.3165 567.17 63.6816 567.17ZM61.1301 562.249C61.2153 560.975 62.1155 559.841 63.5537 559.841C64.9173 559.841 65.7909 560.864 65.7909 562.249H61.1301ZM68.9816 567H70.2387V561.822C70.2387 560.714 71.1123 559.905 72.3055 559.905C72.6411 559.905 72.9873 559.969 73.0725 559.99V558.712C72.9287 558.701 72.5985 558.69 72.412 558.69C71.4319 558.69 70.5796 559.244 70.2813 560.054H70.1961V558.818H68.9816V567ZM82.3397 558.818H80.5925V556.858H79.3354V558.818H78.0996V559.884H79.3354V564.997C79.3354 566.425 80.486 567.107 81.5513 567.107C82.0201 567.107 82.3184 567.021 82.4888 566.957L82.2331 565.828C82.1266 565.849 81.9561 565.892 81.6792 565.892C81.1252 565.892 80.5925 565.722 80.5925 564.656V559.884H82.3397V558.818ZM87.5732 567.17C89.2351 567.17 90.4496 566.339 90.8331 565.104L89.6186 564.763C89.299 565.615 88.5586 566.041 87.5732 566.041C86.0977 566.041 85.0803 565.088 85.0217 563.335H90.9609V562.803C90.9609 559.756 89.1499 558.712 87.4453 558.712C85.2294 558.712 83.7592 560.459 83.7592 562.973C83.7592 565.487 85.2081 567.17 87.5732 567.17ZM85.0217 562.249C85.1069 560.975 86.0071 559.841 87.4453 559.841C88.8089 559.841 89.6825 560.864 89.6825 562.249H85.0217ZM93.591 558.818H92.1421L94.7416 562.909L92.1421 567H93.591L95.5512 563.825L97.5115 567H98.9603L96.3183 562.909L98.9603 558.818H97.5115L95.5512 562.163L93.591 558.818ZM104.312 558.818H102.565V556.858H101.308V558.818H100.072V559.884H101.308V564.997C101.308 566.425 102.459 567.107 103.524 567.107C103.993 567.107 104.291 567.021 104.461 566.957L104.206 565.828C104.099 565.849 103.929 565.892 103.652 565.892C103.098 565.892 102.565 565.722 102.565 564.656V559.884H104.312V558.818ZM111.679 562.078C111.679 560.651 112.59 559.841 113.831 559.841C115.014 559.841 115.727 560.587 115.727 561.886V567H116.985V561.801C116.985 559.697 115.866 558.712 114.193 558.712C112.904 558.712 112.169 559.25 111.786 560.097H111.679V556.091H110.422V567H111.679V562.078ZM122.715 567.17C124.377 567.17 125.591 566.339 125.975 565.104L124.76 564.763C124.441 565.615 123.7 566.041 122.715 566.041C121.239 566.041 120.222 565.088 120.163 563.335H126.103V562.803C126.103 559.756 124.291 558.712 122.587 558.712C120.371 558.712 118.901 560.459 118.901 562.973C118.901 565.487 120.35 567.17 122.715 567.17ZM120.163 562.249C120.248 560.975 121.149 559.841 122.587 559.841C123.951 559.841 124.824 560.864 124.824 562.249H120.163ZM128.015 567H129.272V561.822C129.272 560.714 130.146 559.905 131.339 559.905C131.674 559.905 132.021 559.969 132.106 559.99V558.712C131.962 558.701 131.632 558.69 131.445 558.69C130.465 558.69 129.613 559.244 129.315 560.054H129.229V558.818H128.015V567ZM136.777 567.17C138.439 567.17 139.654 566.339 140.037 565.104L138.823 564.763C138.503 565.615 137.763 566.041 136.777 566.041C135.302 566.041 134.284 565.088 134.226 563.335H140.165V562.803C140.165 559.756 138.354 558.712 136.649 558.712C134.434 558.712 132.963 560.459 132.963 562.973C132.963 565.487 134.412 567.17 136.777 567.17ZM134.226 562.249C134.311 560.975 135.211 559.841 136.649 559.841C138.013 559.841 138.887 560.864 138.887 562.249H134.226Z" fill="#3C3A39"/>
<path fill-rule="evenodd" clip-rule="evenodd" d="M333.793 642.793C333.402 643.183 333.402 643.817 333.793 644.207C334.183 644.598 334.817 644.598 335.207 644.207L343.207 636.207C343.598 635.817 343.598 635.183 343.207 634.793C342.817 634.402 342.183 634.402 341.793 634.793L333.793 642.793ZM338.293 643.293C337.902 643.683 337.902 644.317 338.293 644.707C338.683 645.098 339.317 645.098 339.707 644.707L343.707 640.707C344.098 640.317 344.098 639.683 343.707 639.293C343.317 638.902 342.683 638.902 342.293 639.293L338.293 643.293Z" fill="#6F6C6B"/>
<rect width="131" height="48" transform="translate(122 676)" fill="#FF6B00"/>
<path d="M143.532 697.633H146.188C145.85 695.188 143.695 693.467 140.9 693.467C137.634 693.467 135.117 695.822 135.117 699.83C135.117 703.742 137.471 706.169 140.954 706.169C144.076 706.169 146.303 704.195 146.303 700.941V699.384H141.129V701.352H143.786C143.75 702.885 142.705 703.857 140.966 703.857C139.004 703.857 137.767 702.39 137.767 699.806C137.767 697.234 139.053 695.779 140.942 695.779C142.289 695.779 143.2 696.474 143.532 697.633ZM152.954 706.181C155.248 706.181 156.794 705.064 157.156 703.344L154.777 703.187C154.518 703.893 153.854 704.261 152.996 704.261C151.711 704.261 150.896 703.41 150.896 702.028V702.022H157.21V701.315C157.21 698.164 155.303 696.607 152.852 696.607C150.123 696.607 148.354 698.544 148.354 701.406C148.354 704.346 150.099 706.181 152.954 706.181ZM150.896 700.428C150.95 699.371 151.753 698.526 152.894 698.526C154.011 698.526 154.783 699.323 154.789 700.428H150.896ZM164.331 696.727H162.586V694.506H160.014V696.727H158.747V698.659H160.014V703.489C160.002 705.306 161.24 706.205 163.105 706.127C163.769 706.103 164.24 705.97 164.5 705.885L164.095 703.972C163.968 703.996 163.697 704.056 163.455 704.056C162.942 704.056 162.586 703.863 162.586 703.151V698.659H164.331V696.727ZM170.96 706H173.532V696.727H170.96V706ZM172.252 695.532C173.019 695.532 173.647 694.946 173.647 694.228C173.647 693.516 173.019 692.93 172.252 692.93C171.492 692.93 170.864 693.516 170.864 694.228C170.864 694.946 171.492 695.532 172.252 695.532ZM178.674 700.639C178.68 699.444 179.392 698.744 180.431 698.744C181.463 698.744 182.085 699.42 182.079 700.555V706H184.651V700.096C184.651 697.935 183.383 696.607 181.451 696.607C180.075 696.607 179.079 697.283 178.662 698.363H178.553V696.727H176.102V706H178.674V700.639ZM196.564 696.727H194.82V694.506H192.248V696.727H190.98V698.659H192.248V703.489C192.236 705.306 193.473 706.205 195.339 706.127C196.003 706.103 196.474 705.97 196.733 705.885L196.329 703.972C196.202 703.996 195.93 704.056 195.689 704.056C195.176 704.056 194.82 703.863 194.82 703.151V698.659H196.564V696.727ZM202.84 706.181C205.653 706.181 207.403 704.255 207.403 701.4C207.403 698.526 205.653 696.607 202.84 696.607C200.026 696.607 198.276 698.526 198.276 701.4C198.276 704.255 200.026 706.181 202.84 706.181ZM202.852 704.189C201.554 704.189 200.89 703 200.89 701.382C200.89 699.764 201.554 698.569 202.852 698.569C204.125 698.569 204.789 699.764 204.789 701.382C204.789 703 204.125 704.189 202.852 704.189ZM215.532 702.052C215.538 703.295 214.687 703.947 213.763 703.947C212.791 703.947 212.163 703.265 212.157 702.173V696.727H209.586V702.631C209.592 704.799 210.859 706.121 212.725 706.121C214.119 706.121 215.122 705.402 215.538 704.316H215.635V706H218.104V696.727H215.532V702.052ZM224.861 706.181C227.33 706.181 228.881 704.732 229.002 702.601H226.575C226.424 703.591 225.772 704.147 224.891 704.147C223.689 704.147 222.911 703.138 222.911 701.364C222.911 699.613 223.695 698.611 224.891 698.611C225.832 698.611 226.436 699.233 226.575 700.156H229.002C228.893 698.013 227.269 696.607 224.848 696.607C222.035 696.607 220.297 698.556 220.297 701.4C220.297 704.219 222.005 706.181 224.861 706.181ZM233.73 700.639C233.736 699.444 234.467 698.744 235.517 698.744C236.561 698.744 237.177 699.414 237.171 700.555V706H239.743V700.096C239.749 697.923 238.469 696.607 236.537 696.607C235.131 696.607 234.189 697.271 233.766 698.363H233.658V693.636H231.158V706H233.73V700.639Z" fill="white"/>
<defs>
<clipPath id="clip0_48_244">
<rect width="327" height="216" fill="white" transform="translate(24 120)"/>
</clipPath>
</defs>
</svg>
